<svg width="16" height="16" viewBox="0 0 16 16" fill="none" xmlns="http://www.w3.org/2000/svg">
<path d="M2.60059 1.28987C3.77705 0.859568 6.44913 0.0632028 8.5 0.801584C10.7874 1.62513 11.7079 2.11228 13.7461 1.79084C14.3888 1.68957 14.9998 2.15878 15 2.8094V10.9276L14.9902 11.0643C14.947 11.3809 14.7555 11.6635 14.4531 11.7791L14.2686 11.8446C12.5015 12.4276 11.0991 11.5478 8.95508 10.7225L8.5 10.5535C6.87693 9.96918 4.86466 10.4347 3.5127 10.9022C3.5086 10.9036 3.5041 10.9037 3.5 10.9051V14.7781C3.5 15.1924 3.16421 15.5281 2.75 15.5281C2.33579 15.5281 2 15.1924 2 14.7781V2.17561C2 1.78175 2.2307 1.42517 2.60059 1.28987ZM7.99219 2.21272C7.30027 1.9636 6.40237 1.94697 5.44434 2.09065C4.70808 2.20108 4.02001 2.39337 3.5 2.56526V9.3299C4.92885 8.887 7.08937 8.45089 9.00781 9.14143C9.67011 9.37988 10.2658 9.63189 10.7754 9.84358C11.3017 10.0622 11.7218 10.2322 12.1113 10.3533C12.6574 10.5231 13.0778 10.5758 13.5 10.4969V3.33576C11.3075 3.57598 10.0265 2.94515 7.99219 2.21272Z" fill="currentColor" />
</svg>
